{
    "asset" : {
        "generator" : "Khronos glTF Blender I/O v1.8.19",
        "version" : "2.0"
    },
    "scene" : 0,
    "scenes" : [
        {
            "name" : "Scene",
            "nodes" : [
                0,
                1
            ]
        }
    ],
    "nodes" : [
        {
            "mesh" : 0,
            "name" : "airplane_body"
        },
        {
            "mesh" : 1,
            "name" : "helix",
            "translation" : [
                0,
                0,
                3.4078471660614014
            ]
        }
    ],
    "meshes" : [
        {
            "name" : "Cube.001",
            "primitives" : [
                {
                    "attributes" : {
                        "POSITION" : 0,
                        "NORMAL" : 1,
                        "TEXCOORD_0" : 2
                    },
                    "indices" : 3
                }
            ]
        },
        {
            "name" : "Cube.002",
            "primitives" : [
                {
                    "attributes" : {
                        "POSITION" : 4,
                        "NORMAL" : 5,
                        "TEXCOORD_0" : 6
                    },
                    "indices" : 7
                }
            ]
        }
    ],
    "accessors" : [
        {
            "bufferView" : 0,
            "componentType" : 5126,
            "count" : 579,
            "max" : [
                4.517857551574707,
                2.119330883026123,
                3.2348575592041016
            ],
            "min" : [
                -4.517857551574707,
                -0.8831787109375,
                -3.157863140106201
            ],
            "type" : "VEC3"
        },
        {
            "bufferView" : 1,
            "componentType" : 5126,
            "count" : 579,
            "type" : "VEC3"
        },
        {
            "bufferView" : 2,
            "componentType" : 5126,
            "count" : 579,
            "type" : "VEC2"
        },
        {
            "bufferView" : 3,
            "componentType" : 5123,
            "count" : 1122,
            "type" : "SCALAR"
        },
        {
            "bufferView" : 4,
            "componentType" : 5126,
            "count" : 102,
            "max" : [
                1.2531460523605347,
                1.2802773714065552,
                0.08996081352233887
            ],
            "min" : [
                -1.1744234561920166,
                -0.8730210065841675,
                -0.3031272888183594
            ],
            "type" : "VEC3"
        },
        {
            "bufferView" : 5,
            "componentType" : 5126,
            "count" : 102,
            "type" : "VEC3"
        },
        {
            "bufferView" : 6,
            "componentType" : 5126,
            "count" : 102,
            "type" : "VEC2"
        },
        {
            "bufferView" : 7,
            "componentType" : 5123,
            "count" : 156,
            "type" : "SCALAR"
        }
    ],
    "bufferViews" : [
        {
            "buffer" : 0,
            "byteLength" : 6948,
            "byteOffset" : 0
        },
        {
            "buffer" : 0,
            "byteLength" : 6948,
            "byteOffset" : 6948
        },
        {
            "buffer" : 0,
            "byteLength" : 4632,
            "byteOffset" : 13896
        },
        {
            "buffer" : 0,
            "byteLength" : 2244,
            "byteOffset" : 18528
        },
        {
            "buffer" : 0,
            "byteLength" : 1224,
            "byteOffset" : 20772
        },
        {
            "buffer" : 0,
            "byteLength" : 1224,
            "byteOffset" : 21996
        },
        {
            "buffer" : 0,
            "byteLength" : 816,
            "byteOffset" : 23220
        },
        {
            "buffer" : 0,
            "byteLength" : 312,
            "byteOffset" : 24036
        }
    ],
    "buffers" : [
        {
            "byteLength" : 24348,
            "uri" : "data:application/octet-stream;base64,"
        }
    ]
}
