{
    "asset" : {
        "generator" : "Khronos glTF Blender I/O v1.8.19",
        "version" : "2.0"
    },
    "scene" : 0,
    "scenes" : [
        {
            "name" : "Scene",
            "nodes" : [
                2,
                3,
                4,
                5
            ]
        }
    ],
    "nodes" : [
        {
            "mesh" : 0,
            "name" : "Icosphere",
            "scale" : [
                0.5044224858283997,
                0.5044224858283997,
                0.5044224858283997
            ],
            "translation" : [
                0,
                0,
                0.007966041564941406
            ]
        },
        {
            "mesh" : 1,
            "name" : "Icosphere.001",
            "scale" : [
                0.5044224858283997,
                0.5044224858283997,
                0.5044224858283997
            ],
            "translation" : [
                0,
                0,
                0.007966041564941406
            ]
        },
        {
            "children" : [
                0,
                1
            ],
            "name" : "sun",
            "rotation" : [
                0,
                0.7071068286895752,
                0,
                0.7071068286895752
            ],
            "scale" : [
                1.982465147972107,
                1.982465147972107,
                1.982465147972107
            ],
            "translation" : [
                9.1301908493042,
                11.136576652526855,
                10.38609790802002
            ]
        },
        {
            "mesh" : 2,
            "name" : "ground",
            "rotation" : [
                0,
                0.7071068286895752,
                0,
                0.7071068286895752
            ],
            "translation" : [
                -2.830066204071045,
                0,
                -2.0353007316589355
            ]
        },
        {
            "mesh" : 3,
            "name" : "cloud.001",
            "rotation" : [
                0,
                0.7071068286895752,
                0,
                0.7071068286895752
            ],
            "translation" : [
                -2.379791259765625,
                6.509939670562744,
                8.746244430541992
            ]
        },
        {
            "mesh" : 4,
            "name" : "cloud",
            "rotation" : [
                0,
                0.7071068286895752,
                0,
                0.7071068286895752
            ],
            "translation" : [
                -11.180755615234375,
                10.339282989501953,
                12.267913818359375
            ]
        }
    ],
    "materials" : [
        {
            "doubleSided" : true,
            "name" : "sun",
            "pbrMetallicRoughness" : {
                "baseColorFactor" : [
                    0.8000000715255737,
                    0.6229327321052551,
                    0.015685580670833588,
                    1
                ],
                "metallicFactor" : 0,
                "roughnessFactor" : 0.5
            }
        },
        {
            "doubleSided" : true,
            "name" : "land",
            "pbrMetallicRoughness" : {
                "baseColorFactor" : [
                    0.09904412180185318,
                    0.01998109742999077,
                    0.005218271631747484,
                    1
                ],
                "metallicFactor" : 0,
                "roughnessFactor" : 0.5
            }
        },
        {
            "doubleSided" : true,
            "name" : "water",
            "pbrMetallicRoughness" : {
                "baseColorFactor" : [
                    0.08700989186763763,
                    0.2768988013267517,
                    0.8000000715255737,
                    1
                ],
                "metallicFactor" : 0,
                "roughnessFactor" : 0.5
            }
        },
        {
            "doubleSided" : true,
            "name" : "cloud",
            "pbrMetallicRoughness" : {
                "metallicFactor" : 0,
                "roughnessFactor" : 0.5
            }
        }
    ],
    "meshes" : [
        {
            "name" : "Icosphere",
            "primitives" : [
                {
                    "attributes" : {
                        "POSITION" : 0,
                        "NORMAL" : 1,
                        "TEXCOORD_0" : 2
                    },
                    "indices" : 3,
                    "material" : 0
                }
            ]
        },
        {
            "name" : "Icosphere.001",
            "primitives" : [
                {
                    "attributes" : {
                        "POSITION" : 4,
                        "NORMAL" : 5,
                        "TEXCOORD_0" : 6
                    },
                    "indices" : 3,
                    "material" : 0
                }
            ]
        },
        {
            "name" : "Cylinder",
            "primitives" : [
                {
                    "attributes" : {
                        "POSITION" : 7,
                        "NORMAL" : 8,
                        "TEXCOORD_0" : 9
                    },
                    "indices" : 10,
                    "material" : 1
                },
                {
                    "attributes" : {
                        "POSITION" : 11,
                        "NORMAL" : 12,
                        "TEXCOORD_0" : 13
                    },
                    "indices" : 14,
                    "material" : 2
                }
            ]
        },
        {
            "name" : "Icosphere.002",
            "primitives" : [
                {
                    "attributes" : {
                        "POSITION" : 15,
                        "NORMAL" : 16,
                        "TEXCOORD_0" : 17
                    },
                    "indices" : 18,
                    "material" : 3
                }
            ]
        },
        {
            "name" : "Icosphere.003",
            "primitives" : [
                {
                    "attributes" : {
                        "POSITION" : 19,
                        "NORMAL" : 20,
                        "TEXCOORD_0" : 21
                    },
                    "indices" : 22,
                    "material" : 3
                }
            ]
        }
    ],
    "accessors" : [
        {
            "bufferView" : 0,
            "componentType" : 5126,
            "count" : 60,
            "max" : [
                0.8944249749183655,
                1,
                0.8506399989128113
            ],
            "min" : [
                -0.8944249749183655,
                -1,
                -0.8506399989128113
            ],
            "type" : "VEC3"
        },
        {
            "bufferView" : 1,
            "componentType" : 5126,
            "count" : 60,
            "type" : "VEC3"
        },
        {
            "bufferView" : 2,
            "componentType" : 5126,
            "count" : 60,
            "type" : "VEC2"
        },
        {
            "bufferView" : 3,
            "componentType" : 5123,
            "count" : 60,
            "type" : "SCALAR"
        },
        {
            "bufferView" : 4,
            "componentType" : 5126,
            "count" : 60,
            "max" : [
                0.8944249749183655,
                1,
                0.8506399989128113
            ],
            "min" : [
                -0.8944249749183655,
                -1,
                -0.8506399989128113
            ],
            "type" : "VEC3"
        },
        {
            "bufferView" : 5,
            "componentType" : 5126,
            "count" : 60,
            "type" : "VEC3"
        },
        {
            "bufferView" : 6,
            "componentType" : 5126,
            "count" : 60,
            "type" : "VEC2"
        },
        {
            "bufferView" : 7,
            "componentType" : 5126,
            "count" : 3748,
            "max" : [
                2.2463631629943848,
                1.9239646196365356,
                10.68269157409668
            ],
            "min" : [
                -1.9858781099319458,
                -2.1363115310668945,
                -10.586573600769043
            ],
            "type" : "VEC3"
        },
        {
            "bufferView" : 8,
            "componentType" : 5126,
            "count" : 3748,
            "type" : "VEC3"
        },
        {
            "bufferView" : 9,
            "componentType" : 5126,
            "count" : 3748,
            "type" : "VEC2"
        },
        {
            "bufferView" : 10,
            "componentType" : 5123,
            "count" : 3750,
            "type" : "SCALAR"
        },
        {
            "bufferView" : 11,
            "componentType" : 5126,
            "count" : 9105,
            "max" : [
                1.5153707265853882,
                1.5728776454925537,
                10.398014068603516
            ],
            "min" : [
                -1.5295599699020386,
                -1.4729366302490234,
                -10.32564926147461
            ],
            "type" : "VEC3"
        },
        {
            "bufferView" : 12,
            "componentType" : 5126,
            "count" : 9105,
            "type" : "VEC3"
        },
        {
            "bufferView" : 13,
            "componentType" : 5126,
            "count" : 9105,
            "type" : "VEC2"
        },
        {
            "bufferView" : 14,
            "componentType" : 5123,
            "count" : 9264,
            "type" : "SCALAR"
        },
        {
            "bufferView" : 15,
            "componentType" : 5126,
            "count" : 60,
            "max" : [
                1.4032455682754517,
                1.0020997524261475,
                2.808520555496216
            ],
            "min" : [
                -1.592468023300171,
                -1.2855215072631836,
                -3.0493671894073486
            ],
            "type" : "VEC3"
        },
        {
            "bufferView" : 16,
            "componentType" : 5126,
            "count" : 60,
            "type" : "VEC3"
        },
        {
            "bufferView" : 17,
            "componentType" : 5126,
            "count" : 60,
            "type" : "VEC2"
        },
        {
            "bufferView" : 18,
            "componentType" : 5123,
            "count" : 60,
            "type" : "SCALAR"
        },
        {
            "bufferView" : 19,
            "componentType" : 5126,
            "count" : 60,
            "max" : [
                1.3077774047851562,
                1.0907742977142334,
                2.9031684398651123
            ],
            "min" : [
                -2.1294262409210205,
                -1.880980372428894,
                -2.7933008670806885
            ],
            "type" : "VEC3"
        },
        {
            "bufferView" : 20,
            "componentType" : 5126,
            "count" : 60,
            "type" : "VEC3"
        },
        {
            "bufferView" : 21,
            "componentType" : 5126,
            "count" : 60,
            "type" : "VEC2"
        },
        {
            "bufferView" : 22,
            "componentType" : 5123,
            "count" : 60,
            "type" : "SCALAR"
        }
    ],
    "bufferViews" : [
        {
            "buffer" : 0,
            "byteLength" : 720,
            "byteOffset" : 0
        },
        {
            "buffer" : 0,
            "byteLength" : 720,
            "byteOffset" : 720
        },
        {
            "buffer" : 0,
            "byteLength" : 480,
            "byteOffset" : 1440
        },
        {
            "buffer" : 0,
            "byteLength" : 120,
            "byteOffset" : 1920
        },
        {
            "buffer" : 0,
            "byteLength" : 720,
            "byteOffset" : 2040
        },
        {
            "buffer" : 0,
            "byteLength" : 720,
            "byteOffset" : 2760
        },
        {
            "buffer" : 0,
            "byteLength" : 480,
            "byteOffset" : 3480
        },
        {
            "buffer" : 0,
            "byteLength" : 44976,
            "byteOffset" : 3960
        },
        {
            "buffer" : 0,
            "byteLength" : 44976,
            "byteOffset" : 48936
        },
        {
            "buffer" : 0,
            "byteLength" : 29984,
            "byteOffset" : 93912
        },
        {
            "buffer" : 0,
            "byteLength" : 7500,
            "byteOffset" : 123896
        },
        {
            "buffer" : 0,
            "byteLength" : 109260,
            "byteOffset" : 131396
        },
        {
            "buffer" : 0,
            "byteLength" : 109260,
            "byteOffset" : 240656
        },
        {
            "buffer" : 0,
            "byteLength" : 72840,
            "byteOffset" : 349916
        },
        {
            "buffer" : 0,
            "byteLength" : 18528,
            "byteOffset" : 422756
        },
        {
            "buffer" : 0,
            "byteLength" : 720,
            "byteOffset" : 441284
        },
        {
            "buffer" : 0,
            "byteLength" : 720,
            "byteOffset" : 442004
        },
        {
            "buffer" : 0,
            "byteLength" : 480,
            "byteOffset" : 442724
        },
        {
            "buffer" : 0,
            "byteLength" : 120,
            "byteOffset" : 443204
        },
        {
            "buffer" : 0,
            "byteLength" : 720,
            "byteOffset" : 443324
        },
        {
            "buffer" : 0,
            "byteLength" : 720,
            "byteOffset" : 444044
        },
        {
            "buffer" : 0,
            "byteLength" : 480,
            "byteOffset" : 444764
        },
        {
            "buffer" : 0,
            "byteLength" : 120,
            "byteOffset" : 445244
        }
    ],
    "buffers" : [
        {
            "byteLength" : 445364,
            "uri" : "data:application/octet-stream;base64,"
        }
    ]
}
