{
    "asset" : {
        "generator" : "Khronos glTF Blender I/O v1.6.16",
        "version" : "2.0"
    },
    "extensionsUsed" : [
        "KHR_materials_clearcoat"
    ],
    "scene" : 0,
    "scenes" : [
        {
            "name" : "Scene",
            "nodes" : [
                1,
                2,
                3
            ]
        }
    ],
    "nodes" : [
        {
            "camera" : 0,
            "name" : "Camera_Orientation",
            "rotation" : [
                -0.7071067690849304,
                0,
                0,
                0.7071067690849304
            ]
        },
        {
            "children" : [
                0
            ],
            "name" : "Camera",
            "rotation" : [
                0.6331130862236023,
                -0.1708928495645523,
                0.13636070489883423,
                0.7425423860549927
            ],
            "translation" : [
                -2.8380043506622314,
                2.185586929321289,
                6.938931465148926
            ]
        },
        {
            "mesh" : 0,
            "name" : "hand"
        },
        {
            "name" : "Area",
            "rotation" : [
                0.20002640783786774,
                0,
                0.02257414162158966,
                0.979530394077301
            ],
            "scale" : [
                3.5578970909118652,
                3.5578970909118652,
                3.5578970909118652
            ],
            "translation" : [
                0,
                5.092160701751709,
                2.0206024646759033
            ]
        }
    ],
    "cameras" : [
        {
            "name" : "Camera",
            "perspective" : {
                "aspectRatio" : 1.7777777777777777,
                "yfov" : 0.39959652046304894,
                "zfar" : 100,
                "znear" : 0.10000000149011612
            },
            "type" : "perspective"
        }
    ],
    "materials" : [
        {
            "doubleSided" : true,
            "extensions" : {
                "KHR_materials_clearcoat" : {
                    "clearcoatFactor" : 0.47727271914482117,
                    "clearcoatRoughnessFactor" : 0.029999999329447746
                }
            },
            "name" : "uk_material",
            "pbrMetallicRoughness" : {
                "baseColorTexture" : {
                    "index" : 0
                },
                "metallicFactor" : 0,
                "roughnessFactor" : 0.5
            }
        }
    ],
    "meshes" : [
        {
            "name" : "Plane.001",
            "primitives" : [
                {
                    "attributes" : {
                        "POSITION" : 0,
                        "NORMAL" : 1,
                        "TEXCOORD_0" : 2
                    },
                    "indices" : 3,
                    "material" : 0
                }
            ]
        }
    ],
    "textures" : [
        {
            "sampler" : 0,
            "source" : 0
        }
    ],
    "images" : [
        {
            "mimeType" : "image/png",
            "name" : "uk_material Base Color",
            "uri" : "uk_material%20Base%20Color.png"
        }
    ],
    "accessors" : [
        {
            "bufferView" : 0,
            "componentType" : 5126,
            "count" : 438,
            "max" : [
                0.6090850830078125,
                1.7669527530670166,
                0.4587053954601288
            ],
            "min" : [
                -0.6163250207901001,
                0,
                -0.24065342545509338
            ],
            "type" : "VEC3"
        },
        {
            "bufferView" : 1,
            "componentType" : 5126,
            "count" : 438,
            "type" : "VEC3"
        },
        {
            "bufferView" : 2,
            "componentType" : 5126,
            "count" : 438,
            "type" : "VEC2"
        },
        {
            "bufferView" : 3,
            "componentType" : 5123,
            "count" : 636,
            "type" : "SCALAR"
        }
    ],
    "bufferViews" : [
        {
            "buffer" : 0,
            "byteLength" : 5256,
            "byteOffset" : 0
        },
        {
            "buffer" : 0,
            "byteLength" : 5256,
            "byteOffset" : 5256
        },
        {
            "buffer" : 0,
            "byteLength" : 3504,
            "byteOffset" : 10512
        },
        {
            "buffer" : 0,
            "byteLength" : 1272,
            "byteOffset" : 14016
        }
    ],
    "samplers" : [
        {
            "magFilter" : 9729,
            "minFilter" : 9987
        }
    ],
    "buffers" : [
        {
            "byteLength" : 15288,
            "uri" : "resistance.bin"
        }
    ]
}
