<?xml version="1.0" encoding="UTF-8" standalone="no"?>
<svg
   xmlns:dc="http://purl.org/dc/elements/1.1/"
   xmlns:cc="http://creativecommons.org/ns#"
   xmlns:rdf="http://www.w3.org/1999/02/22-rdf-syntax-ns#"
   xmlns:svg="http://www.w3.org/2000/svg"
   xmlns="http://www.w3.org/2000/svg"
   xmlns:sodipodi="http://sodipodi.sourceforge.net/DTD/sodipodi-0.dtd"
   xmlns:inkscape="http://www.inkscape.org/namespaces/inkscape"
   version="1.1"
   id="svg2"
   xml:space="preserve"
   width="1422"
   height="773.33331"
   viewBox="0 0 1422 773.33331"
   sodipodi:docname="Logo_fini_sem_slogan.eps"><metadata
     id="metadata8"><rdf:RDF><cc:Work
         rdf:about=""><dc:format>image/svg+xml</dc:format><dc:type
           rdf:resource="http://purl.org/dc/dcmitype/StillImage" /></cc:Work></rdf:RDF></metadata><defs
     id="defs6" /><sodipodi:namedview
     pagecolor="#ffffff"
     bordercolor="#666666"
     borderopacity="1"
     objecttolerance="10"
     gridtolerance="10"
     guidetolerance="10"
     inkscape:pageopacity="0"
     inkscape:pageshadow="2"
     inkscape:window-width="640"
     inkscape:window-height="480"
     id="namedview4" /><g
     id="g10"
     inkscape:groupmode="layer"
     inkscape:label="ink_ext_XXXXXX"
     transform="matrix(1.3333333,0,0,-1.3333333,0,773.33333)"><g
       id="g12"
       transform="scale(0.1)"><path
         d="m 9422.37,4477.86 c 2.69,5.17 5.89,10.16 8.43,15.37 20.43,41.79 36.26,84.6 47.01,127.19 33.23,131.48 12.42,268.97 -58.58,387.12 -72.64,120.85 -192.86,209.47 -329.84,243.12 -79.04,19.42 -166.44,29.26 -259.78,29.26 -179.08,0 -369.94,-36.42 -537.42,-102.56 -8.95,-3.54 -17.27,-7.45 -26.01,-11.11 39.4,157.58 9.27,314.59 -86.38,432.25 -93.05,114.44 -236.22,182.88 -414.07,197.93 -27.95,2.37 -56.62,3.57 -85.24,3.57 -312.02,0 -635.74,-142.13 -794.09,-333.9 -7.03,9.72 -14.45,19.22 -22.5,28.33 -114.06,129.07 -240.97,186.35 -482.48,186.35 h -0.02 c -200.78,-0.01 -411.18,-59.32 -573.18,-154.71 -156.76,8.1 -315.34,12.5 -475.7,12.5 C 2387.45,5538.57 0,4298.73 0,2769.28 0,1239.86 2387.45,0 5332.52,0 8277.59,0 10665,1239.86 10665,2769.28 c 0,603.12 -467,1214.32 -1242.63,1708.58"
         style="fill:#2d358b;fill-opacity:1;fill-rule:nonzero;stroke:none"
         id="path14" /><path
         d="m 4192.84,3375.03 c 3,108.96 -41.58,194.22 -128.99,246.57 -64.97,38.91 -150.37,57.97 -241.61,57.97 -116.28,0 -242.06,-30.93 -347.39,-91.12 -128.35,-73.35 -198.6,-175.75 -197.81,-288.33 l -0.03,-1 c -7.85,-139.09 41.31,-246.82 142.25,-311.58 134.51,-86.28 348.79,-83.04 521.06,8.07 156.1,82.53 248.12,220.8 252.52,379.42"
         style="fill:#ffffff;fill-opacity:1;fill-rule:nonzero;stroke:none"
         id="path16" /><path
         d="m 7964.28,4501.11 c 51.35,-262.7 259.71,-369.94 497.6,-369.94 311.93,0 674.68,184.2 801.49,443.84 14.39,29.44 25.89,59.81 33.77,91.04 45.24,178.99 -72.92,359.6 -252.22,403.65 -65.65,16.13 -138.82,23.88 -215.31,23.88 -154.33,0 -322.16,-31.56 -468.98,-89.54 -250.77,-99.02 -440.23,-275.13 -396.35,-502.93"
         style="fill:#ffffff;fill-opacity:1;fill-rule:nonzero;stroke:none"
         id="path18" /><path
         d="m 3740.69,2811.41 c -251.43,-16.21 -443.04,-211.03 -502.9,-377.38 -32.13,-89.31 -72.19,-295.42 -91.8,-590.61 -16.96,-254.94 7,-601.65 19.95,-718.26 27.92,-251.578 203.59,-389.558 474.98,-385.512 271.43,4.071 455.02,162.301 534.84,438.262 79.86,275.96 43.91,963.94 11.98,1231.77 -32.3,270.99 -223.92,416.13 -447.05,401.73"
         style="fill:#ffffff;fill-opacity:1;fill-rule:nonzero;stroke:none"
         id="path20" /><path
         d="m 3167.11,3073.12 c -15.62,119.17 -62.42,209.73 -135.36,261.97 -56.62,40.54 -128.96,57.01 -193.2,44.13 -31.02,-6.2 -70.67,-14.72 -114.49,-24.16 -120.86,-26 -271.3,-58.38 -363.5,-68.6 -66.48,-7.46 -120.23,4.94 -159.69,36.62 -40,32.15 -64.02,83.24 -71.39,151.88 -6.31,58.7 9.77,111.31 46.46,152.14 39.25,43.68 99.85,69.76 162.12,69.76 97.41,0 609.28,37.4 752.77,73.57 98.79,24.91 261.08,104.47 238.18,357.25 -9.52,105.35 -50.16,183.32 -120.77,231.73 -87.29,59.85 -196.93,58.75 -270.45,37.74 -52.74,-15.04 -211.34,-49.89 -394.98,-90.26 -94.93,-20.86 -196.11,-43.09 -291.65,-64.57 -185.62,-41.75 -372.32,-57.46 -522.33,-70.07 -39.16,-3.29 -75.8,-6.37 -109.19,-9.65 -197.08,-19.32 -336.66,-170.3 -373.36,-403.85 -16.77,-106.7 -27.75,-442.75 -24.11,-562.79 3.1,-101.85 13.95,-510.72 10.41,-649.91 -3.01,-117.37 -47.29,-533.52 -66.21,-711.22 l -6.77,-63.88 c -6.12,-59.59 -24.84,-241.05 132.63,-363.01 67.33,-52.2 182.01,-115.04 345.76,-117.89 139.09,-2.64 252.86,42.55 339.57,133.6 160.11,168.21 180.43,442.17 174.91,524.88 -9.22,138.49 -9.22,399.14 0,546.87 9.4,150.53 132.08,167.82 221.68,180.47 l 19.41,2.79 c 44.16,6.64 108,9.12 175.61,11.76 75.55,2.95 161.14,6.31 231.8,16.05 95.45,13.16 403.96,78.49 366.14,366.65"
         style="fill:#ffffff;fill-opacity:1;fill-rule:nonzero;stroke:none"
         id="path22" /><path
         d="m 6978.77,3927.17 c -205.6,56.09 -482.51,39.29 -740.74,-44.92 -285.76,-93.16 -560.24,-254.55 -663.58,-315.3 -15.71,-9.24 -27.47,-16.14 -34.72,-20.16 -49.53,-27.29 -86.2,-34.71 -119.17,-24.03 -39.21,12.73 -70.42,50.39 -107.76,129.96 -21.62,46.19 -76.64,103.15 -151.01,103.15 -15.31,0 -31.42,-2.41 -48.25,-7.83 -156.11,-50.16 -300.17,-108.77 -395.26,-160.79 -200.32,-109.59 -227.23,-356.23 -223.46,-416.29 4.94,-79 19.38,-515.63 19.38,-605.86 0,-30.57 -3.73,-155.44 -8.47,-313.51 -9.46,-316.92 -23.77,-795.85 -20.56,-941.37 2.46,-111.49 46.31,-205.64 123.44,-265.11 89.23,-68.848 217.22,-85.829 370.39,-49.2 353.06,84.53 510.93,394.86 489.15,586.39 -23.84,209.49 -27.6,782.17 -12.25,1027.3 14.4,230.65 250.06,433.01 504.32,433.01 124.83,0 248.81,-49.95 344.65,-148.91 88.17,-91.08 128.86,-176.44 140.22,-304.91 4.14,-46.74 -1.74,-123.01 -2.14,-170.6 -0.9,-103.82 -1.62,-188.17 -9.14,-335.87 -8.95,-176.28 -26.08,-435.56 -32.45,-517.97 -9.07,-118.07 29.08,-238.06 102.09,-320.98 79.73,-90.59 197.72,-140.45 350.64,-148.22 370.77,-18.23 625.48,282.49 687.6,502.38 31.3,110.76 75.61,501.95 82.71,800.61 8.27,348.54 -29.91,720.66 -46.2,879.58 -46.25,451.11 -434.62,604.46 -599.43,649.45"
         style="fill:#ffffff;fill-opacity:1;fill-rule:nonzero;stroke:none"
         id="path24" /><path
         d="m 9288.48,2637.71 c -2.64,170.94 -5.12,332.38 -16.1,469.56 -14.04,174.67 -38.16,308.98 -51.11,381.14 l -4.61,26.04 c -17.77,102.18 -68.54,239.84 -157.83,319.74 -99.6,89.11 -232.72,123.79 -431.8,112.56 -85.32,-4.83 -231.35,-51.97 -347.79,-129.18 -143.63,-95.24 -220.45,-230.43 -243.55,-285.72 -18.7,-44.76 -57.99,-166.4 -90.77,-379.57 -29.54,-192.35 -42.52,-422.94 -49.53,-546.84 l -2.55,-44.55 c -12.37,-207.12 -23.87,-446.67 -15.31,-652.69 7.03,-169.67 28.78,-332.51 38.09,-402.02 l 1.73,-12.89 c 14.04,-106 45.86,-227.63 175.24,-325.89 142.55,-108.4 343.94,-129.78 440.33,-125.69 119.37,5.34 520.9,55.81 675.22,481.06 57.78,159.2 89.96,556.09 82.01,1011.15 l -1.67,103.79"
         style="fill:#ffffff;fill-opacity:1;fill-rule:nonzero;stroke:none"
         id="path26" /><path
         d="m 3942.94,4428.63 c -440.46,-275.58 -163.78,-712.3 262.31,-590.99 124.12,35.34 261.16,107.08 326.02,218.65 192.84,331.7 -136.51,604.49 -588.33,372.34"
         style="fill:#7ecb29;fill-opacity:1;fill-rule:nonzero;stroke:none"
         id="path28" /><path
         d="m 5497.54,4690.82 c 101.06,197.94 -40.1,426.73 -261.76,442.77 -323.25,23.37 -734.46,-206.84 -626.18,-539.29 170.13,-389.25 726.86,-219.03 887.94,96.52"
         style="fill:#f2ef22;fill-opacity:1;fill-rule:nonzero;stroke:none"
         id="path30" /><path
         d="m 6106.16,4690.5 c 35.88,0 73.57,2.56 112.78,7.74 298.63,38.5 468.15,212.72 527.26,362.94 45.74,116.19 33.46,229.25 -33.72,310.2 -58.16,70.05 -151.82,111.91 -273.12,120.92 -19.32,1.44 -38.64,2.13 -57.97,2.13 -303.89,-0.01 -602.2,-171.54 -666.83,-325.3 -48.8,-116.18 -36.18,-240.24 33.77,-331.85 73.45,-96.2 198.28,-146.78 357.83,-146.78"
         style="fill:#f48518;fill-opacity:1;fill-rule:nonzero;stroke:none"
         id="path32" /><path
         d="m 7400.06,4773.22 c 35.18,0 71.99,2.3 110.2,6.95 313.67,37.18 493.37,218.11 556.99,375.05 49.21,121.39 37.55,240.12 -32.06,325.75 -60.25,74.11 -158.03,119.02 -285.19,129.78 -23.14,1.96 -46.34,2.91 -69.51,2.91 -315.78,-0.01 -625.44,-174.99 -694.24,-334.12 -52.44,-121.34 -40.55,-251.61 31.86,-348.46 77.23,-103.35 210.67,-157.86 381.95,-157.86"
         style="fill:#ea1c28;fill-opacity:1;fill-rule:nonzero;stroke:none"
         id="path34" /></g></g></svg>
