{
    "asset" : {
        "generator" : "Khronos glTF Blender I/O v1.3.48",
        "version" : "2.0"
    },
    "scene" : 0,
    "scenes" : [
        {
            "name" : "Scene",
            "nodes" : [
                0
            ]
        }
    ],
    "nodes" : [
        {
            "mesh" : 0,
            "name" : "low_poly_earth"
        }
    ],
    "materials" : [
        {
            "doubleSided" : true,
            "name" : "water",
            "pbrMetallicRoughness" : {}
        },
        {
            "doubleSided" : true,
            "name" : "earth",
            "pbrMetallicRoughness" : {}
        }
    ],
    "meshes" : [
        {
            "name" : "Sphere.004",
            "primitives" : [
                {
                    "attributes" : {
                        "POSITION" : 0,
                        "NORMAL" : 1,
                        "TEXCOORD_0" : 2
                    },
                    "indices" : 3,
                    "material" : 0
                },
                {
                    "attributes" : {
                        "POSITION" : 4,
                        "NORMAL" : 5,
                        "TEXCOORD_0" : 6
                    },
                    "indices" : 7,
                    "material" : 1
                }
            ]
        }
    ],
    "accessors" : [
        {
            "bufferView" : 0,
            "componentType" : 5126,
            "count" : 2276,
            "max" : [
                0.964901328086853,
                0.9753069281578064,
                0.9621639251708984
            ],
            "min" : [
                -0.9646192789077759,
                -0.9757384657859802,
                -0.9675606489181519
            ],
            "type" : "VEC3"
        },
        {
            "bufferView" : 1,
            "componentType" : 5126,
            "count" : 2276,
            "type" : "VEC3"
        },
        {
            "bufferView" : 2,
            "componentType" : 5126,
            "count" : 2276,
            "type" : "VEC2"
        },
        {
            "bufferView" : 3,
            "componentType" : 5123,
            "count" : 2292,
            "type" : "SCALAR"
        },
        {
            "bufferView" : 4,
            "componentType" : 5126,
            "count" : 11814,
            "max" : [
                0.9841111898422241,
                1.0133217573165894,
                0.9926793575286865
            ],
            "min" : [
                -0.9578160047531128,
                -0.9993601441383362,
                -1.001206398010254
            ],
            "type" : "VEC3"
        },
        {
            "bufferView" : 5,
            "componentType" : 5126,
            "count" : 11814,
            "type" : "VEC3"
        },
        {
            "bufferView" : 6,
            "componentType" : 5126,
            "count" : 11814,
            "type" : "VEC2"
        },
        {
            "bufferView" : 7,
            "componentType" : 5123,
            "count" : 13416,
            "type" : "SCALAR"
        }
    ],
    "bufferViews" : [
        {
            "buffer" : 0,
            "byteLength" : 27312,
            "byteOffset" : 0
        },
        {
            "buffer" : 0,
            "byteLength" : 27312,
            "byteOffset" : 27312
        },
        {
            "buffer" : 0,
            "byteLength" : 18208,
            "byteOffset" : 54624
        },
        {
            "buffer" : 0,
            "byteLength" : 4584,
            "byteOffset" : 72832
        },
        {
            "buffer" : 0,
            "byteLength" : 141768,
            "byteOffset" : 77416
        },
        {
            "buffer" : 0,
            "byteLength" : 141768,
            "byteOffset" : 219184
        },
        {
            "buffer" : 0,
            "byteLength" : 94512,
            "byteOffset" : 360952
        },
        {
            "buffer" : 0,
            "byteLength" : 26832,
            "byteOffset" : 455464
        }
    ],
    "buffers" : [
        {
            "byteLength" : 482296,
            "uri" : "data:application/octet-stream;base64,"
        }
    ]
}
